<?xml version="1.0" encoding="UTF-8" standalone="no"?>
<svg
   width="24"
   height="24"
   viewBox="0 0 24 24"
   fill="none"
   stroke="currentColor"
   stroke-width="2"
   stroke-linecap="round"
   stroke-linejoin="round"
   class="feather feather-sun"
   version="1.1"
   id="svg7772"
   sodipodi:docname="sun.svg"
   inkscape:version="1.2.2 (732a01da63, 2022-12-09, custom)"
   xmlns:inkscape="http://www.inkscape.org/namespaces/inkscape"
   xmlns:sodipodi="http://sodipodi.sourceforge.net/DTD/sodipodi-0.dtd"
   xmlns:xlink="http://www.w3.org/1999/xlink"
   xmlns="http://www.w3.org/2000/svg"
   xmlns:svg="http://www.w3.org/2000/svg">
  <defs
     id="defs7776">
    <linearGradient
       id="linearGradient22797"
       inkscape:swatch="solid">
      <stop
         style="stop-color:#000000;stop-opacity:1;"
         offset="0"
         id="stop22795" />
    </linearGradient>
    <linearGradient
       id="linearGradient22791"
       inkscape:swatch="solid">
      <stop
         style="stop-color:#000000;stop-opacity:1;"
         offset="0"
         id="stop22789" />
    </linearGradient>
    <linearGradient
       id="linearGradient22785"
       inkscape:swatch="solid">
      <stop
         style="stop-color:#000000;stop-opacity:1;"
         offset="0"
         id="stop22783" />
    </linearGradient>
    <linearGradient
       id="linearGradient22779"
       inkscape:swatch="solid">
      <stop
         style="stop-color:#000000;stop-opacity:1;"
         offset="0"
         id="stop22777" />
    </linearGradient>
    <linearGradient
       id="linearGradient22773"
       inkscape:swatch="solid">
      <stop
         style="stop-color:#000000;stop-opacity:1;"
         offset="0"
         id="stop22771" />
    </linearGradient>
    <linearGradient
       id="linearGradient22767"
       inkscape:swatch="solid">
      <stop
         style="stop-color:#000000;stop-opacity:1;"
         offset="0"
         id="stop22765" />
    </linearGradient>
    <linearGradient
       id="linearGradient22761"
       inkscape:swatch="solid">
      <stop
         style="stop-color:#000000;stop-opacity:1;"
         offset="0"
         id="stop22759" />
    </linearGradient>
    <linearGradient
       id="linearGradient22755"
       inkscape:swatch="solid">
      <stop
         style="stop-color:#000000;stop-opacity:1;"
         offset="0"
         id="stop22753" />
    </linearGradient>
    <linearGradient
       id="linearGradient22749"
       inkscape:swatch="solid">
      <stop
         style="stop-color:#000000;stop-opacity:1;"
         offset="0"
         id="stop22747" />
    </linearGradient>
    <linearGradient
       id="linearGradient22737"
       inkscape:swatch="solid">
      <stop
         style="stop-color:#808080;stop-opacity:1;"
         offset="0"
         id="stop22735" />
    </linearGradient>
    <linearGradient
       id="linearGradient22717"
       inkscape:swatch="solid">
      <stop
         style="stop-color:#000000;stop-opacity:1;"
         offset="0"
         id="stop22715" />
    </linearGradient>
    <linearGradient
       id="linearGradient22709"
       inkscape:swatch="solid">
      <stop
         style="stop-color:#000000;stop-opacity:1;"
         offset="0"
         id="stop22707" />
    </linearGradient>
    <linearGradient
       id="linearGradient22475"
       inkscape:swatch="solid">
      <stop
         style="stop-color:#000000;stop-opacity:1;"
         offset="0"
         id="stop22473" />
    </linearGradient>
    <linearGradient
       id="linearGradient19561"
       inkscape:swatch="solid">
      <stop
         style="stop-color:#000000;stop-opacity:1;"
         offset="0"
         id="stop19559" />
    </linearGradient>
    <linearGradient
       id="linearGradient19555"
       inkscape:swatch="solid">
      <stop
         style="stop-color:#000000;stop-opacity:1;"
         offset="0"
         id="stop19553" />
    </linearGradient>
    <linearGradient
       id="linearGradient19549"
       inkscape:swatch="solid">
      <stop
         style="stop-color:#808080;stop-opacity:1;"
         offset="0"
         id="stop19547" />
    </linearGradient>
    <linearGradient
       id="linearGradient19494"
       inkscape:swatch="solid">
      <stop
         style="stop-color:#888888;stop-opacity:1;"
         offset="0"
         id="stop19492" />
    </linearGradient>
    <linearGradient
       id="linearGradient19281"
       inkscape:swatch="solid">
      <stop
         style="stop-color:#636363;stop-opacity:1;"
         offset="0"
         id="stop19279" />
    </linearGradient>
    <linearGradient
       id="linearGradient14915"
       inkscape:swatch="solid">
      <stop
         style="stop-color:#636363;stop-opacity:1;"
         offset="0"
         id="stop14913" />
    </linearGradient>
    <linearGradient
       id="linearGradient14909"
       inkscape:swatch="solid">
      <stop
         style="stop-color:#808080;stop-opacity:1;"
         offset="0"
         id="stop14907" />
    </linearGradient>
    <linearGradient
       id="linearGradient14887"
       inkscape:swatch="solid">
      <stop
         style="stop-color:#808080;stop-opacity:1;"
         offset="0"
         id="stop14885" />
    </linearGradient>
    <linearGradient
       id="linearGradient14881"
       inkscape:swatch="solid">
      <stop
         style="stop-color:#636363;stop-opacity:1;"
         offset="0"
         id="stop14879" />
    </linearGradient>
    <linearGradient
       id="linearGradient11967"
       inkscape:swatch="solid">
      <stop
         style="stop-color:#636363;stop-opacity:1;"
         offset="0"
         id="stop11965" />
    </linearGradient>
    <linearGradient
       id="3085"
       inkscape:swatch="solid">
      <stop
         style="stop-color:#666060;stop-opacity:1;"
         offset="0"
         id="stop11957" />
    </linearGradient>
    <linearGradient
       inkscape:collect="always"
       xlink:href="#linearGradient14909"
       id="linearGradient11969"
       x1="-0.00906731"
       y1="12.000095"
       x2="4.0107989"
       y2="12.000095"
       gradientUnits="userSpaceOnUse" />
    <linearGradient
       inkscape:collect="always"
       xlink:href="#linearGradient19549"
       id="linearGradient19563"
       x1="5.0992761"
       y1="12.000342"
       x2="18.896887"
       y2="12.000342"
       gradientUnits="userSpaceOnUse" />
    <linearGradient
       inkscape:collect="always"
       xlink:href="#linearGradient14909"
       id="linearGradient22757"
       x1="17.364857"
       y1="4.9382129"
       x2="20.780882"
       y2="4.9382129"
       gradientUnits="userSpaceOnUse" />
    <linearGradient
       inkscape:collect="always"
       xlink:href="#linearGradient19549"
       id="linearGradient22769"
       x1="20"
       y1="12"
       x2="24"
       y2="12"
       gradientUnits="userSpaceOnUse" />
    <linearGradient
       inkscape:collect="always"
       xlink:href="#linearGradient14909"
       id="linearGradient22775"
       x1="17.364859"
       y1="19.066614"
       x2="20.780882"
       y2="19.066614"
       gradientUnits="userSpaceOnUse" />
    <linearGradient
       inkscape:collect="always"
       xlink:href="#linearGradient14909"
       id="linearGradient22781"
       x1="11.000124"
       y1="22.005348"
       x2="12.999825"
       y2="22.005348"
       gradientUnits="userSpaceOnUse" />
    <linearGradient
       inkscape:collect="always"
       xlink:href="#linearGradient14909"
       id="linearGradient22787"
       x1="3.2191203"
       y1="19.066305"
       x2="6.6351409"
       y2="19.066305"
       gradientUnits="userSpaceOnUse" />
    <linearGradient
       inkscape:collect="always"
       xlink:href="#linearGradient14909"
       id="linearGradient22793"
       x1="3.21912"
       y1="4.9345198"
       x2="6.6455488"
       y2="4.9345198"
       gradientUnits="userSpaceOnUse" />
    <linearGradient
       inkscape:collect="always"
       xlink:href="#linearGradient14909"
       id="linearGradient22799"
       x1="11.000172"
       y1="1.9987751"
       x2="12.999876"
       y2="1.9987751"
       gradientUnits="userSpaceOnUse" />
  </defs>
  <sodipodi:namedview
     id="namedview7774"
     pagecolor="#ffffff"
     bordercolor="#000000"
     borderopacity="0.25"
     inkscape:showpageshadow="2"
     inkscape:pageopacity="0.0"
     inkscape:pagecheckerboard="0"
     inkscape:deskcolor="#d1d1d1"
     showgrid="false"
     inkscape:zoom="35.416667"
     inkscape:cx="5.1529412"
     inkscape:cy="12.014118"
     inkscape:window-width="1920"
     inkscape:window-height="1016"
     inkscape:window-x="1600"
     inkscape:window-y="27"
     inkscape:window-maximized="1"
     inkscape:current-layer="svg7772" />
  <circle
     cx="12"
     cy="12"
     r="5"
     id="circle7754" />
  <line
     x1="12"
     y1="1"
     x2="12"
     y2="3"
     id="line7756" />
  <line
     x1="12"
     y1="21"
     x2="12"
     y2="23"
     id="line7758" />
  <line
     x1="4.22"
     y1="4.22"
     x2="5.64"
     y2="5.64"
     id="line7760" />
  <line
     x1="18.36"
     y1="18.36"
     x2="19.78"
     y2="19.78"
     id="line7762" />
  <line
     x1="1"
     y1="12"
     x2="3"
     y2="12"
     id="line7764" />
  <line
     x1="21"
     y1="12"
     x2="23"
     y2="12"
     id="line7766"
     style="stroke:url(#linearGradient22769)" />
  <line
     x1="4.22"
     y1="19.78"
     x2="5.64"
     y2="18.36"
     id="line7768" />
  <line
     x1="18.36"
     y1="5.64"
     x2="19.78"
     y2="4.22"
     id="line7770" />
  <path
     style="fill:#808080;stroke:#000000;stroke-width:0.0564706"
     d="M 11.407059,17.955059 C 8.6208736,17.667516 6.4034838,15.491871 6.05792,12.706623 6.019704,12.398606 6.019704,11.601394 6.05792,11.293377 6.2236019,9.9579789 6.8245254,8.7246511 7.7703317,7.7788447 8.2534027,7.2957738 8.7444042,6.9437356 9.362138,6.6375516 c 1.670267,-0.8278791 3.605149,-0.8267868 5.282502,0.00298 1.815385,0.8980517 3.047244,2.6362635 3.29744,4.6528434 0.03822,0.308017 0.03822,1.105229 0,1.413246 -0.24699,1.99074 -1.458905,3.720809 -3.239876,4.625082 -1.021137,0.518474 -2.182532,0.738179 -3.295145,0.623354 z m 1.411765,-2.025127 c 1.543944,-0.333918 2.733582,-1.494706 3.08715,-3.012285 0.211691,-0.908617 0.09564,-1.899241 -0.318936,-2.722424 C 15.048874,9.1266395 14.068887,8.3611846 12.881646,8.0820787 12.597253,8.0152212 12.508166,8.0074685 12.014118,8.0065835 11.414846,8.00551 11.215639,8.0341996 10.736663,8.1905615 9.745813,8.5140252 8.8861477,9.2556601 8.4129619,10.195223 8.1872495,10.6434 8.0565732,11.11151 8.0034692,11.662111 c -0.065665,0.68084 0.084081,1.494423 0.3860303,2.097324 0.5982599,1.194546 1.6814455,1.993986 2.9904045,2.207054 0.349092,0.05682 1.094742,0.03788 1.43892,-0.03656 z"
     id="path10664" />
  <path
     style="fill:#808080;stroke:url(#linearGradient22793);stroke-width:0.0564706"
     d="M 5.4178872,6.5966188 C 5.3384311,6.5766833 5.2177252,6.5273178 5.1496519,6.4869176 5.0815787,6.4465175 4.6612464,6.0472571 4.2155802,5.5996726 3.2761123,4.6561606 3.2469144,4.6145905 3.2473591,4.2211765 3.2475729,4.0320711 3.2609247,3.9663714 3.3293653,3.8176522 3.5455853,3.347813 4.0884837,3.12625 4.5801173,3.3072061 4.7301704,3.3624363 4.8130926,3.4365318 5.5944542,4.2135716 6.5414696,5.1553489 6.5901089,5.2197419 6.6147654,5.564346 6.6619423,6.2237082 6.0466546,6.7543762 5.4178872,6.5966188 Z"
     id="path10666" />
  <path
     style="fill:#808080;stroke:url(#linearGradient22799);stroke-width:0.0564706"
     d="M 11.712683,3.9422027 C 11.440908,3.8533728 11.182191,3.6062428 11.082762,3.3404936 11.025599,3.1877122 11.023932,3.1422426 11.031832,1.9512712 L 11.04,0.72 11.13696,0.54116248 c 0.24666,-0.4549507 0.800683,-0.64652712 1.254948,-0.43395076 0.234354,0.10966745 0.356267,0.22213966 0.471863,0.4353233 L 12.96,0.72 12.9682,1.9512712 c 0.0079,1.1940279 0.0064,1.2360872 -0.05141,1.3904939 -0.07794,0.208305 -0.293956,0.4443269 -0.498069,0.5441901 -0.188179,0.092067 -0.516414,0.1182178 -0.706011,0.056248 z"
     id="path10668" />
  <path
     style="fill:#808080;stroke:url(#linearGradient22757);stroke-width:0.0564706"
     d="m 18.173131,6.6048675 c -0.296535,-0.058277 -0.57362,-0.2770741 -0.704488,-0.5562932 -0.0646,-0.1378267 -0.07568,-0.1987858 -0.07555,-0.4156331 2.48e-4,-0.4071281 0.01408,-0.4265229 1.012451,-1.4193696 0.781361,-0.7770398 0.864284,-0.8511353 1.014337,-0.9063655 0.491633,-0.1809561 1.034532,0.040607 1.250752,0.5104461 0.06844,0.1487192 0.08179,0.2144189 0.08201,0.4035243 4.43e-4,0.393414 -0.02875,0.4349841 -0.968221,1.3784961 -0.445666,0.4475845 -0.865605,0.8466145 -0.933198,0.8867329 -0.121857,0.072326 -0.389686,0.1504548 -0.498281,0.1453538 -0.03106,-0.00146 -0.111973,-0.01356 -0.17981,-0.026892 z"
     id="path10670" />
  <path
     style="fill:#808080;stroke:url(#linearGradient22775);stroke-width:0.0564706"
     d="m 19.411765,20.691363 c -0.138533,-0.05231 -0.247139,-0.149978 -1.006219,-0.904895 -0.998366,-0.992891 -1.012203,-1.01229 -1.012451,-1.419409 -1.31e-4,-0.216847 0.01095,-0.277807 0.07555,-0.415633 0.240681,-0.513514 0.85819,-0.721013 1.35299,-0.454638 0.08209,0.04419 0.432123,0.372938 0.951485,0.893622 0.952075,0.954497 0.979969,0.994034 0.979523,1.388414 -2.26e-4,0.189105 -0.01357,0.254805 -0.08201,0.403524 -0.102636,0.223024 -0.321127,0.43023 -0.540024,0.512129 -0.208446,0.07799 -0.507478,0.07669 -0.718846,-0.0031 z"
     id="path10674" />
  <path
     style="fill:#808080;stroke:url(#linearGradient22781);stroke-width:0.0564706"
     d="M 11.858228,23.969244 C 11.569259,23.932612 11.284619,23.731186 11.13696,23.458838 L 11.04,23.28 11.0318,22.048729 c -0.0079,-1.194028 -0.0064,-1.236087 0.05141,-1.390494 0.07852,-0.209861 0.293759,-0.444145 0.501984,-0.546398 0.139748,-0.06863 0.19374,-0.0789 0.414779,-0.0789 0.221039,0 0.275031,0.01027 0.414779,0.0789 0.208225,0.102253 0.423465,0.336537 0.501984,0.546398 0.05777,0.154407 0.05933,0.196466 0.05141,1.390494 L 12.96,23.28 12.8824,23.427193 c -0.112005,0.212469 -0.221896,0.325617 -0.417491,0.429868 -0.191468,0.102052 -0.392854,0.13929 -0.606686,0.112183 z"
     id="path10676" />
  <path
     style="fill:#808080;stroke:url(#linearGradient22787);stroke-width:0.0564706"
     d="m 3.861373,20.693099 c -0.2109345,-0.08107 -0.4318916,-0.293202 -0.5320077,-0.510751 -0.068441,-0.148719 -0.081792,-0.214419 -0.082006,-0.403524 -4.458e-4,-0.39438 0.027448,-0.433917 0.9795225,-1.388414 0.5193625,-0.520684 0.8693931,-0.849428 0.9514856,-0.893622 0.4965214,-0.267302 1.1115782,-0.06037 1.3532983,0.455311 0.06426,0.137091 0.075371,0.198366 0.075239,0.41496 -2.542e-4,0.407128 -0.014082,0.426523 -1.0124505,1.419369 -0.7813616,0.77704 -0.8642838,0.851136 -1.0143369,0.906366 -0.214543,0.07897 -0.5137545,0.07909 -0.7187443,3.05e-4 z"
     id="path10678" />
  <path
     style="fill:#808080;stroke:url(#linearGradient11969);stroke-width:0.0564706;stroke-opacity:1"
     d="M 0.75539159,12.955334 C 0.58390744,12.916928 0.30248999,12.716599 0.1920192,12.554294 -0.15200458,12.048851 0.03305274,11.383964 0.59447924,11.108307 l 0.1678737,-0.08243 1.16659476,-0.0085 c 1.007297,-0.0074 1.1880003,-0.0023 1.3233561,0.03706 0.5806416,0.168797 0.8886796,0.799699 0.6478924,1.326967 -0.127785,0.27982 -0.3517112,0.47655 -0.6398129,0.562107 -0.1272166,0.03778 -0.3243089,0.04426 -1.267861,0.04171 -0.6144755,-0.0017 -1.1711843,-0.01511 -1.23713071,-0.02988 z"
     id="path10680" />
  <path
     style="fill:#808080;stroke:#636363;stroke-width:0.0282353;stroke-dasharray:none;stroke-opacity:1"
     d="M 11.195294,17.886924 C 9.8801046,17.678588 8.7969346,17.143995 7.8816908,16.251511 7.3472388,15.73035 6.9780239,15.224541 6.6641497,14.583529 6.2644184,13.767176 6.0705882,12.923513 6.0705882,12 c 0,-0.920261 0.1893633,-1.750316 0.5869327,-2.5727608 C 6.9496593,8.8228979 7.3003203,8.3317053 7.8008883,7.8256535 8.7489785,6.867177 9.9741515,6.2667256 11.321612,6.1001635 c 0.308124,-0.038088 1.049388,-0.038028 1.356776,1.096e-4 1.749133,0.2170137 3.301436,1.1763066 4.279316,2.6445333 0.378716,0.5686198 0.723309,1.3956796 0.856292,2.0551936 0.157342,0.780324 0.157342,1.619676 0,2.4 -0.215352,1.068014 -0.805015,2.164193 -1.589519,2.954903 -0.895852,0.902939 -1.965459,1.463359 -3.255654,1.705801 -0.347788,0.06535 -1.425871,0.08129 -1.773529,0.02622 z m 1.644656,-1.919172 c 1.662354,-0.368496 2.896294,-1.669099 3.159939,-3.330653 0.056,-0.35296 0.03826,-1.163927 -0.03247,-1.484158 C 15.705212,9.9658944 14.95155,8.9737742 13.888151,8.4157973 13.566843,8.2472033 13.320252,8.1530133 12.946652,8.0561731 12.716027,7.9963935 12.577143,7.980261 12.197647,7.9691704 11.372715,7.9450621 10.876762,8.0428248 10.235294,8.3559913 8.5266081,9.1901763 7.6443383,11.024023 8.0502786,12.897667 c 0.3259651,1.504512 1.5362851,2.716829 3.0461924,3.051218 0.147529,0.03267 0.3,0.06511 0.338823,0.07208 0.167752,0.03013 1.206159,-0.0092 1.404656,-0.05321 z"
     id="path19275" />
  <path
     style="mix-blend-mode:normal;fill:#808080;stroke:url(#linearGradient19563)"
     d="M 11.336471,17.872282 C 10.794738,17.822447 10.049929,17.603688 9.4693189,17.323878 8.8208977,17.011387 8.3208918,16.650606 7.8010546,16.120137 7.2951458,15.603881 7.0074172,15.200386 6.6941946,14.567936 6.3779552,13.929394 6.1957894,13.285589 6.1246837,12.555187 6.0850254,12.147816 6.1059031,11.454526 6.1694616,11.068235 6.5503786,8.7531298 8.2808515,6.8623653 10.551366,6.2804408 11.139054,6.1298185 11.51951,6.0897713 12.183529,6.1086376 c 0.741053,0.021055 1.266328,0.1258829 1.930802,0.3853251 1.61466,0.63044 2.861194,1.9083655 3.442865,3.5295663 0.219322,0.611285 0.312007,1.098731 0.335802,1.76605 0.04931,1.382992 -0.345998,2.630574 -1.192742,3.764237 -0.984429,1.318003 -2.605053,2.216898 -4.180866,2.318959 -0.471184,0.03052 -0.84753,0.03036 -1.182919,-4.92e-4 z m 1.378964,-1.864069 c 0.265234,-0.03125 0.800688,-0.205384 1.110416,-0.361112 0.95503,-0.48018 1.696774,-1.332314 2.028062,-2.329887 0.188746,-0.568355 0.243153,-1.074764 0.18713,-1.741798 C 15.962949,10.645584 15.566434,9.807685 14.879375,9.1206254 14.431767,8.6730181 13.922221,8.3525273 13.335469,8.1495511 12.938106,8.0120905 12.694225,7.9666427 12.237033,7.9448549 11.536512,7.911471 10.968976,8.0045924 10.418897,8.2431748 9.2989048,8.7289419 8.5112711,9.5837811 8.1310433,10.726242 c -0.2730839,0.820528 -0.2616472,1.817616 0.030318,2.64317 0.4280245,1.210273 1.4295284,2.16615 2.6527567,2.5319 0.464269,0.138818 0.664634,0.163822 1.185882,0.147988 0.271765,-0.0083 0.59371,-0.02674 0.715435,-0.04109 z"
     id="path19498" />
</svg>
