<svg width="24" height="24" viewBox="0 0 24 24" fill="none" xmlns="http://www.w3.org/2000/svg">
<rect width="24" height="24" fill="#383A42"/>
<path d="M8.52856 4.04674L8.52853 3.54671C8.53795 2.81883 7.72508 2.50374 7.00447 2.5C6.28023 2.50072 5.52089 2.81628 5.52853 3.54672C5.53618 4.27716 5.52852 4.04674 5.52852 4.04674M8.52856 4.04674L5.52852 4.04674M8.52856 4.04674L8.52856 8.58432L8.52852 9.04674L7.00446 11L5.50445 8.99998L5.52852 4.04674" stroke="white" stroke-miterlimit="10"/>
<path d="M19.0698 4.30114C19.0169 3.86932 18.8026 3.53409 18.4268 3.29545C18.051 3.05682 17.5901 2.9375 17.044 2.9375C16.6448 2.9375 16.2954 3 15.9959 3.125C15.6994 3.25 15.4675 3.42187 15.3001 3.64062C15.1357 3.85937 15.0535 4.10795 15.0535 4.38636C15.0535 4.61932 15.1108 4.8196 15.2253 4.98721C15.3427 5.15199 15.4924 5.28977 15.6745 5.40057C15.8565 5.50852 16.0473 5.59801 16.247 5.66903C16.4466 5.73721 16.6301 5.79261 16.7974 5.83523L17.7134 6.07386C17.9483 6.13352 18.2096 6.21591 18.4973 6.32102C18.7879 6.42614 19.0654 6.5696 19.3296 6.75142C19.5968 6.9304 19.817 7.16051 19.9902 7.44176C20.1634 7.72301 20.25 8.06818 20.25 8.47727C20.25 8.94886 20.1223 9.375 19.8669 9.75568C19.6144 10.1364 19.2445 10.4389 18.7571 10.6634C18.2727 10.8878 17.6841 11 16.9912 11C16.3453 11 15.786 10.8992 15.3133 10.6974C14.8436 10.4957 14.4737 10.2145 14.2036 9.85369C13.9364 9.4929 13.7852 9.07386 13.75 8.59659H14.8774C14.9067 8.92614 15.0212 9.19886 15.2209 9.41477C15.4234 9.62784 15.6789 9.78693 15.9871 9.89204C16.2983 9.99432 16.633 10.0455 16.9912 10.0455C17.4081 10.0455 17.7824 9.98011 18.1142 9.84943C18.4459 9.71591 18.7087 9.53125 18.9024 9.29545C19.0962 9.05682 19.1931 8.77841 19.1931 8.46023C19.1931 8.17045 19.1094 7.93466 18.9421 7.75284C18.7747 7.57102 18.5545 7.42329 18.2815 7.30966C18.0085 7.19602 17.7134 7.09659 17.3963 7.01136L16.2866 6.70454C15.582 6.50852 15.0242 6.22869 14.6131 5.86506C14.2021 5.50142 13.9966 5.02557 13.9966 4.4375C13.9966 3.94886 14.1331 3.52273 14.4062 3.15909C14.6821 2.79261 15.0521 2.50852 15.5159 2.30682C15.9827 2.10227 16.5038 2 17.0793 2C17.6606 2 18.1773 2.10085 18.6294 2.30256C19.0815 2.50142 19.4397 2.77415 19.7039 3.12074C19.9711 3.46733 20.112 3.86079 20.1267 4.30114H19.0698Z" fill="#5FAD65"/>
<path d="M13 13.9668V13H21V13.9668H17.6458V22H16.3542V13.9668H13Z" fill="#DB5C5C"/>
<path d="M4.18182 22H3L6.41818 13H7.58181L11 22H9.81818L7.03636 14.4238H6.96364L4.18182 22ZM4.61818 18.4844H9.38181V19.4512H4.61818V18.4844Z" fill="#F2C55C"/>
</svg>
