<svg width="32" height="32" viewBox="0 0 32 32" fill="none" xmlns="http://www.w3.org/2000/svg">
<rect width="32" height="32" rx="5" fill="#383A42"/>
<g clip-path="url(#clip0_2010_282)">
<path d="M17.8649 16.9768H26.7343V19.4974H17.8649V16.9768ZM20.7163 20.1276H23.8671V27.8155H20.7163V20.1276Z" fill="#DB5C5C"/>
</g>
<g clip-path="url(#clip1_2010_282)">
<path d="M7.91237 16.9768H8.18019L9.42474 21.2934L7.61305 27.8155H4.46228L7.91237 16.9768ZM11.457 25.8935H8.8261L9.48776 23.4674H10.7481L8.88911 16.9768H11.7721L15.2222 27.8155H12.0084L11.457 25.8935Z" fill="#F2C55C"/>
</g>
<g clip-path="url(#clip2_2010_282)">
<path d="M25.9682 6.66592C25.6217 6.6239 25.0125 6.56615 24.1408 6.49263C23.6577 6.47163 23.2691 6.46112 22.975 6.46112C22.5969 6.46112 22.2398 6.47163 21.9037 6.49263V4.05078H22.2976C23.1588 4.05078 24.0515 4.10855 24.9757 4.22407C25.2698 4.26608 25.6007 4.32385 25.9682 4.39737V6.66592ZM23.3689 11.8174C23.3689 11.5969 23.3531 11.4393 23.3216 11.3448C23.2901 11.2398 23.2376 11.1715 23.1641 11.14C23.0905 11.098 22.9645 11.0665 22.786 11.0455L20.8482 10.8092C19.7035 10.6832 18.9315 10.3103 18.5324 9.69066C18.3539 9.42809 18.2331 9.10777 18.1701 8.72967C18.1071 8.35158 18.0756 7.88948 18.0756 7.34334C18.0756 6.17755 18.3749 5.33734 18.9735 4.82272C19.4566 4.40262 20.2128 4.15581 21.2421 4.08229V7.24881C21.2421 7.38535 21.2473 7.50087 21.2578 7.5954C21.2683 7.68992 21.2893 7.76345 21.3209 7.81595C21.3524 7.87897 21.4049 7.92623 21.4784 7.95774C21.5519 7.97873 21.6622 7.99449 21.8092 8.005L23.9833 8.27281C24.4349 8.33583 24.8025 8.4146 25.086 8.50912C25.3696 8.60364 25.6111 8.75067 25.8107 8.95023C26.2833 9.44384 26.5196 10.3208 26.5196 11.5811C26.5196 12.915 26.2255 13.8497 25.6374 14.3853C25.3748 14.6269 25.0545 14.8054 24.6764 14.9209C24.3088 15.026 23.873 15.0942 23.3689 15.1257V11.8174ZM22.5339 15.1415C21.4836 15.1415 20.5069 15.0942 19.6037 14.9997C19.0681 14.9472 18.6637 14.8947 18.3906 14.8422V12.5421C19.0103 12.5946 19.7192 12.6471 20.5174 12.6996C21.0215 12.7206 21.3786 12.7312 21.5887 12.7312C22.1558 12.7312 22.5287 12.7154 22.7072 12.6839V15.1415H22.5339Z" fill="#5FAD65"/>
</g>
<g clip-path="url(#clip3_2010_282)">
<path d="M11.9108 7.52216V6.32552C11.9233 5.355 10.6562 4.94248 9.6954 4.9375C8.72975 4.93846 7.5213 5.3516 7.5315 6.32552C7.54169 7.29944 7.5315 7.52216 7.5315 7.52216M11.9108 7.52216H7.5315M11.9108 7.52216V10.8452V12.5683L9.6954 14.2913L7.5315 12.5683L7.5315 7.52216" stroke="white" stroke-width="2" stroke-miterlimit="10"/>
</g>
<defs>
<clipPath id="clip0_2010_282">
<rect width="9.10769" height="11.0769" fill="white" transform="translate(17.7231 16.7385)"/>
</clipPath>
<clipPath id="clip1_2010_282">
<rect width="10.8308" height="11.0769" fill="white" transform="translate(4.43079 16.7385)"/>
</clipPath>
<clipPath id="clip2_2010_282">
<rect width="8.61538" height="11.3231" fill="white" transform="translate(17.9692 3.93848)"/>
</clipPath>
<clipPath id="clip3_2010_282">
<rect width="6.64615" height="11.8154" fill="white" transform="translate(6.40002 3.93848)"/>
</clipPath>
</defs>
</svg>
