<svg width="128" height="128" viewBox="0 0 128 128" fill="none" xmlns="http://www.w3.org/2000/svg">
<rect width="128" height="128" rx="20" fill="#383A42"/>
<g clip-path="url(#clip0_2010_301)">
<path d="M71.4595 67.9072H106.937V77.9897H71.4595V67.9072ZM82.8653 80.5103H95.4683V111.262H82.8653V80.5103Z" fill="#DB5C5C"/>
</g>
<g clip-path="url(#clip1_2010_301)">
<path d="M31.6496 67.9072H32.7208L37.699 85.1734L30.4523 111.262H17.8492L31.6496 67.9072ZM45.828 103.574H35.3044L37.9511 93.8696H42.9923L35.5565 67.9072H47.0883L60.8887 111.262H48.0336L45.828 103.574Z" fill="#F2C55C"/>
</g>
<g clip-path="url(#clip2_2010_301)">
<path d="M103.873 26.6634C102.487 26.4954 100.05 26.2644 96.5632 25.9703C94.6307 25.8863 93.0764 25.8442 91.9001 25.8442C90.3877 25.8442 88.9593 25.8863 87.615 25.9703V16.2029H89.1904C92.6353 16.2029 96.2061 16.4339 99.903 16.8961C101.079 17.0641 102.403 17.2951 103.873 17.5892V26.6634ZM93.4755 47.2695C93.4755 46.3873 93.4125 45.7571 93.2864 45.379C93.1604 44.9589 92.9504 44.6858 92.6563 44.5598C92.3622 44.3917 91.858 44.2657 91.1439 44.1817L83.393 43.2365C78.8139 42.7324 75.7261 41.241 74.1298 38.7624C73.4156 37.7121 72.9325 36.4308 72.6804 34.9185C72.4283 33.4061 72.3023 31.5577 72.3023 29.3731C72.3023 24.71 73.4996 21.3491 75.8942 19.2906C77.8267 17.6102 80.8514 16.623 84.9684 16.3289V28.995C84.9684 29.5412 84.9894 30.0033 85.0314 30.3813C85.0735 30.7594 85.1574 31.0535 85.2835 31.2636C85.4095 31.5156 85.6195 31.7047 85.9136 31.8307C86.2077 31.9147 86.6488 31.9777 87.237 32.0197L95.9331 33.091C97.7395 33.3431 99.2099 33.6581 100.344 34.0362C101.478 34.4143 102.445 35.0024 103.243 35.8007C105.133 37.7751 106.079 41.283 106.079 46.3242C106.079 51.6596 104.902 55.3985 102.55 57.541C101.499 58.5072 100.218 59.2214 98.7058 59.6835C97.2354 60.1036 95.492 60.3767 93.4755 60.5027V47.2695ZM90.1357 60.5657C85.9346 60.5657 82.0276 60.3767 78.4148 59.9986C76.2723 59.7886 74.6549 59.5784 73.5626 59.3684V50.1682C76.0412 50.3782 78.8769 50.5883 82.0697 50.7983C84.0862 50.8823 85.5146 50.9244 86.3547 50.9244C88.6233 50.9244 90.1147 50.8613 90.8288 50.7353V60.5657H90.1357Z" fill="#5FAD65"/>
</g>
<g clip-path="url(#clip3_2010_301)">
<path d="M47.6432 30.0889V25.3023C47.6934 21.4203 42.6249 19.7702 38.7816 19.7502C34.919 19.7541 30.0852 21.4066 30.126 25.3023C30.1668 29.198 30.126 30.0889 30.126 30.0889M47.6432 30.0889H30.126M47.6432 30.0889V43.381V50.2735L38.7816 57.1656L30.126 50.2735L30.126 30.0889" stroke="white" stroke-width="8" stroke-miterlimit="10"/>
</g>
<defs>
<clipPath id="clip0_2010_301">
<rect width="36.4308" height="44.3077" fill="white" transform="translate(70.8923 66.9541)"/>
</clipPath>
<clipPath id="clip1_2010_301">
<rect width="43.3231" height="44.3077" fill="white" transform="translate(17.7231 66.9541)"/>
</clipPath>
<clipPath id="clip2_2010_301">
<rect width="34.4615" height="45.2923" fill="white" transform="translate(71.877 15.7539)"/>
</clipPath>
<clipPath id="clip3_2010_301">
<rect width="26.5846" height="47.2615" fill="white" transform="translate(25.6001 15.7539)"/>
</clipPath>
</defs>
</svg>
