<svg width="256" height="256" viewBox="0 0 256 256" fill="none" xmlns="http://www.w3.org/2000/svg">
<rect width="256" height="256" rx="40" fill="#383A42"/>
<g clip-path="url(#clip0_2010_320)">
<path d="M142.919 135.814H213.874V155.979H142.919V135.814ZM165.731 161.021H190.937V222.524H165.731V161.021Z" fill="#DB5C5C"/>
</g>
<g clip-path="url(#clip1_2010_320)">
<path d="M63.2991 135.814H65.4416L75.3981 170.347L60.9045 222.524H35.6984L63.2991 135.814ZM91.656 207.148H70.6089L75.9022 187.739H85.9846L71.113 135.814H94.1766L121.777 222.524H96.0671L91.656 207.148Z" fill="#F2C55C"/>
</g>
<g clip-path="url(#clip2_2010_320)">
<path d="M207.746 53.3269C204.973 52.9907 200.1 52.5287 193.126 51.9405C189.261 51.7726 186.153 51.6885 183.8 51.6885C180.775 51.6885 177.919 51.7726 175.23 51.9405V32.4058H178.381C185.271 32.4058 192.412 32.8679 199.806 33.7921C202.159 34.1282 204.805 34.5903 207.746 35.1784V53.3269ZM186.951 94.5389C186.951 92.7745 186.825 91.5142 186.573 90.758C186.321 89.9177 185.901 89.3717 185.313 89.1196C184.724 88.7835 183.716 88.5314 182.288 88.3634L166.786 86.473C157.628 85.4647 151.452 82.4819 148.26 77.5248C146.831 75.4242 145.865 72.8616 145.361 69.8369C144.857 66.8122 144.605 63.1153 144.605 58.7462C144.605 49.4199 146.999 42.6983 151.788 38.5813C155.653 35.2204 161.703 33.246 169.937 32.6578V57.99C169.937 59.0823 169.979 60.0065 170.063 60.7627C170.147 61.5189 170.315 62.1071 170.567 62.5271C170.819 63.0312 171.239 63.4093 171.827 63.6614C172.415 63.8294 173.298 63.9554 174.474 64.0395L191.866 66.182C195.479 66.6861 198.42 67.3163 200.688 68.0725C202.957 68.8287 204.889 70.0049 206.486 71.6013C210.267 75.5502 212.157 82.566 212.157 92.6485C212.157 103.319 209.804 110.797 205.099 115.082C202.999 117.014 200.436 118.443 197.412 119.367C194.471 120.207 190.984 120.753 186.951 121.005V94.5389ZM180.271 121.131C171.869 121.131 164.055 120.753 156.83 119.997C152.545 119.577 149.31 119.157 147.125 118.737V100.336C152.082 100.756 157.754 101.177 164.139 101.597C168.172 101.765 171.029 101.849 172.709 101.849C177.247 101.849 180.229 101.723 181.658 101.471V121.131H180.271Z" fill="#5FAD65"/>
</g>
<g clip-path="url(#clip3_2010_320)">
<path d="M95.2864 60.1776V50.6045C95.3868 42.8404 85.2498 39.5402 77.5633 39.5004C69.8381 39.508 60.1705 42.8131 60.252 50.6045C60.3336 58.3959 60.252 60.1776 60.252 60.1776M95.2864 60.1776H60.252M95.2864 60.1776V86.7618V100.547L77.5633 114.331L60.2521 100.547L60.252 60.1776" stroke="white" stroke-width="16" stroke-miterlimit="10"/>
</g>
<defs>
<clipPath id="clip0_2010_320">
<rect width="72.8615" height="88.6154" fill="white" transform="translate(141.785 133.908)"/>
</clipPath>
<clipPath id="clip1_2010_320">
<rect width="86.6462" height="88.6154" fill="white" transform="translate(35.4463 133.908)"/>
</clipPath>
<clipPath id="clip2_2010_320">
<rect width="68.9231" height="90.5846" fill="white" transform="translate(143.754 31.5078)"/>
</clipPath>
<clipPath id="clip3_2010_320">
<rect width="53.1692" height="94.5231" fill="white" transform="translate(51.2002 31.5078)"/>
</clipPath>
</defs>
</svg>
