<svg width="64" height="64" viewBox="0 0 64 64" fill="none" xmlns="http://www.w3.org/2000/svg">
<rect width="64" height="64" rx="10" fill="#383A42"/>
<g clip-path="url(#clip0_2010_339)">
<path d="M35.7297 33.9536H53.4686V38.9948H35.7297V33.9536ZM41.4326 40.2552H47.7342V55.6309H41.4326V40.2552Z" fill="#DB5C5C"/>
</g>
<g clip-path="url(#clip1_2010_339)">
<path d="M15.8247 33.9536H16.3604L18.8495 42.5867L15.2261 55.6309H8.92456L15.8247 33.9536ZM22.914 51.787H17.6522L18.9755 46.9348H21.4961L17.7782 33.9536H23.5441L30.4443 55.6309H24.0167L22.914 51.787Z" fill="#F2C55C"/>
</g>
<g clip-path="url(#clip2_2010_339)">
<path d="M51.9365 13.3317C51.2433 13.2477 50.025 13.1322 48.2816 12.9851C47.3153 12.9431 46.5382 12.9221 45.95 12.9221C45.1938 12.9221 44.4796 12.9431 43.8075 12.9851V8.10144H44.5952C46.3176 8.10144 48.103 8.21697 49.9515 8.44803C50.5397 8.53204 51.2013 8.64757 51.9365 8.79461V13.3317ZM46.7377 23.6347C46.7377 23.1936 46.7062 22.8785 46.6432 22.6895C46.5802 22.4794 46.4752 22.3429 46.3281 22.2799C46.1811 22.1959 45.929 22.1329 45.5719 22.0909L41.6965 21.6182C39.4069 21.3662 37.863 20.6205 37.0648 19.3812C36.7078 18.8561 36.4662 18.2154 36.3402 17.4592C36.2141 16.703 36.1511 15.7788 36.1511 14.6865C36.1511 12.355 36.7498 10.6746 37.9471 9.64532C38.9133 8.80511 40.4257 8.31149 42.4842 8.16446V14.4975C42.4842 14.7706 42.4947 15.0016 42.5157 15.1907C42.5367 15.3797 42.5787 15.5268 42.6417 15.6318C42.7047 15.7578 42.8097 15.8523 42.9568 15.9153C43.1038 15.9573 43.3244 15.9889 43.6184 16.0099L47.9665 16.5455C48.8697 16.6715 49.6049 16.8291 50.172 17.0181C50.7392 17.2072 51.2223 17.5012 51.6214 17.9003C52.5666 18.8876 53.0392 20.6415 53.0392 23.1621C53.0392 25.8298 52.4511 27.6992 51.2748 28.7705C50.7497 29.2536 50.109 29.6107 49.3528 29.8417C48.6177 30.0518 47.746 30.1883 46.7377 30.2514V23.6347ZM45.0678 30.2829C42.9673 30.2829 41.0138 30.1883 39.2074 29.9993C38.1361 29.8943 37.3274 29.7892 36.7813 29.6842V25.0841C38.0206 25.1891 39.4384 25.2942 41.0348 25.3992C42.0431 25.4412 42.7573 25.4622 43.1773 25.4622C44.3116 25.4622 45.0573 25.4307 45.4144 25.3677V30.2829H45.0678Z" fill="#5FAD65"/>
</g>
<g clip-path="url(#clip3_2010_339)">
<path d="M23.8216 15.0444V12.6512C23.8467 10.7101 21.3124 9.88509 19.3908 9.87512C17.4595 9.87704 15.0426 10.7033 15.063 12.6512C15.0834 14.599 15.063 15.0444 15.063 15.0444M23.8216 15.0444H15.063M23.8216 15.0444V21.6905V25.1367L19.3908 28.5828L15.063 25.1367L15.063 15.0444" stroke="white" stroke-width="4" stroke-miterlimit="10"/>
</g>
<defs>
<clipPath id="clip0_2010_339">
<rect width="18.2154" height="22.1538" fill="white" transform="translate(35.4462 33.4771)"/>
</clipPath>
<clipPath id="clip1_2010_339">
<rect width="21.6615" height="22.1538" fill="white" transform="translate(8.86157 33.4771)"/>
</clipPath>
<clipPath id="clip2_2010_339">
<rect width="17.2308" height="22.6462" fill="white" transform="translate(35.9385 7.87695)"/>
</clipPath>
<clipPath id="clip3_2010_339">
<rect width="13.2923" height="23.6308" fill="white" transform="translate(12.8 7.87695)"/>
</clipPath>
</defs>
</svg>
