<svg width="16" height="16" viewBox="0 0 16 16" fill="none" xmlns="http://www.w3.org/2000/svg">
<rect x="2.5" y="2.5" width="11" height="11" rx="1.5" stroke="#6C707E"/>
<circle cx="10" cy="6" r="1.5" fill="#FF5263" stroke="#6C707E"/>
<path d="M2.5 9.83566L4.26232 8.18919C4.66859 7.80962 5.30646 7.83432 5.68216 8.24418L10.5 13.5" stroke="#6C707E"/>
<path d="M10.5 13.5L5.63177 8.18921C5.27619 7.8013 4.68083 7.75534 4.26992 8.08406L2.5 9.5V11V11.5C2.5 12.6046 3.39543 13.5 4.5 13.5H10.5Z" fill="#82BA3D" stroke="#6C707E"/>
<path d="M13.5 11.5L10.1 8.95C9.74444 8.68333 9.25556 8.68333 8.9 8.95L7.5 10L10.5 13.5H11.5C12.6046 13.5 13.5 12.6046 13.5 11.5Z" fill="#82BA3D" stroke="#6C707E"/>
</svg>
