<svg width="32" height="32" viewBox="0 0 32 32" fill="none" xmlns="http://www.w3.org/2000/svg">
<path fill-rule="evenodd" clip-rule="evenodd" d="M18 2H2V18H18V2ZM13 7H7V13H13V7Z" fill="#D9D9D9"/>
<path fill-rule="evenodd" clip-rule="evenodd" d="M23 30C26.866 30 30 26.866 30 23C30 19.134 26.866 16 23 16C19.134 16 16 19.134 16 23C16 26.866 19.134 30 23 30ZM23 26.5C24.933 26.5 26.5 24.933 26.5 23C26.5 21.067 24.933 19.5 23 19.5C21.067 19.5 19.5 21.067 19.5 23C19.5 24.933 21.067 26.5 23 26.5Z" fill="#D9D9D9"/>
<rect x="3" y="3" width="14" height="14" stroke="#6C707E" stroke-width="2"/>
</svg>
