<svg width="32" height="32" viewBox="0 0 32 32" fill="none" xmlns="http://www.w3.org/2000/svg">
<path fill-rule="evenodd" clip-rule="evenodd" d="M18 2H2V18H18V2ZM13 7H7V13H13V7Z" fill="#D9D9D9"/>
<path fill-rule="evenodd" clip-rule="evenodd" d="M23 29C26.3137 29 29 26.3137 29 23C29 19.6863 26.3137 17 23 17C19.6863 17 17 19.6863 17 23C17 26.3137 19.6863 29 23 29ZM23 26C24.6569 26 26 24.6569 26 23C26 21.3431 24.6569 20 23 20C21.3431 20 20 21.3431 20 23C20 24.6569 21.3431 26 23 26Z" fill="#D9D9D9"/>
<rect x="3" y="3" width="14" height="14" stroke="#6C707E" stroke-width="2"/>
<circle cx="23" cy="23" r="6" stroke="#6C707E" stroke-width="2"/>
</svg>
