<svg width="16" height="16" viewBox="0 0 16 16" fill="none" xmlns="http://www.w3.org/2000/svg">
<path fill-rule="evenodd" clip-rule="evenodd" d="M9 1H1V9H9V1ZM7 3H3V7H7V3Z" fill="#D9D9D9"/>
<path fill-rule="evenodd" clip-rule="evenodd" d="M11.5 14.5C13.1569 14.5 14.5 13.1569 14.5 11.5C14.5 9.84315 13.1569 8.5 11.5 8.5C9.84315 8.5 8.5 9.84315 8.5 11.5C8.5 13.1569 9.84315 14.5 11.5 14.5ZM11.5 13C12.3284 13 13 12.3284 13 11.5C13 10.6716 12.3284 10 11.5 10C10.6716 10 10 10.6716 10 11.5C10 12.3284 10.6716 13 11.5 13Z" fill="#D9D9D9"/>
<rect x="1.4" y="1.4" width="7.2" height="7.2" stroke="#6C707E" stroke-width="0.8"/>
<rect x="3.4" y="3.4" width="3.2" height="3.2" stroke="#6C707E" stroke-width="0.8"/>
<circle cx="11.5" cy="11.5" r="3.1" stroke="#6C707E" stroke-width="0.8"/>
<circle cx="11.5" cy="11.5" r="1.1" stroke="#6C707E" stroke-width="0.8"/>
</svg>
