<svg width="32" height="32" viewBox="0 0 32 32" fill="none" xmlns="http://www.w3.org/2000/svg">
<path fill-rule="evenodd" clip-rule="evenodd" d="M12 4H20V6H12V4ZM10 6V4C10 2.89543 10.8954 2 12 2H20C21.1046 2 22 2.89543 22 4V6H27C27.5523 6 28 6.44772 28 7V10V12H26V28C26 29.1046 25.1046 30 24 30H8C6.89543 30 6 29.1046 6 28V12H4V10V7C4 6.44772 4.44772 6 5 6H10ZM22 8H20H12H10H6V10H8H24H26V8H22ZM8 12H24V28H8V12ZM13 14C12.4477 14 12 14.4477 12 15V23C12 23.5523 12.4477 24 13 24C13.5523 24 14 23.5523 14 23V15C14 14.4477 13.5523 14 13 14ZM18 15C18 14.4477 18.4477 14 19 14C19.5523 14 20 14.4477 20 15V23C20 23.5523 19.5523 24 19 24C18.4477 24 18 23.5523 18 23V15Z" fill="#6C707E"/>
</svg>
