<svg width="16" height="16" viewBox="0 0 16 16" fill="none" xmlns="http://www.w3.org/2000/svg">
<path d="M14 9.5L8 9.5" stroke="#6C707E" stroke-linecap="round"/>
<path d="M10 8L8 9.5L10 11" stroke="#6C707E" stroke-linecap="round"/>
<path d="M12 14L14 12.5L12 11" stroke="#6C707E" stroke-linecap="round"/>
<path d="M10 8L8 9.5L10 11" stroke="#6C707E" stroke-linecap="round"/>
<path d="M14 12.5L8 12.5" stroke="#6C707E" stroke-linecap="round"/>
<path d="M2.63333 3L6.1217 3L8.04022 5H13C13.5523 5 14 5.44771 14 6V7.41604C14.357 7.57202 14.6923 7.76849 15 7.99963V6C15 4.89543 14.1046 4 13 4L8.46667 4L6.84336 2.30775C6.65477 2.11115 6.39413 2 6.1217 2H2.63333C1.73127 2 1 2.83574 1 3.86667V12.1333C1 13.1643 1.73127 14 2.63333 14H7.41604C7.27732 13.6825 7.17062 13.3478 7.10002 13H2.63333C2.40481 13 2 12.7416 2 12.1333V3.86667C2 3.25841 2.40481 3 2.63333 3Z" fill="#6C707E"/>
</svg>
