<svg width="100" height="100" viewBox="0 0 100 100" fill="none" xmlns="http://www.w3.org/2000/svg">
<rect width="100" height="100" fill="#383A42"/>
<path d="M35.5357 16.8614L35.5355 14.778C35.5748 11.7451 32.1878 10.4322 29.1853 10.4167C26.1676 10.4197 23.0037 11.7345 23.0355 14.778C23.0674 17.8215 23.0355 16.8614 23.0355 16.8614M35.5357 16.8614L23.0355 16.8614M35.5357 16.8614L35.5357 35.768L35.5355 37.6948L29.1852 45.8332L22.9352 37.4999L23.0355 16.8614" stroke="white" stroke-width="4" stroke-miterlimit="10"/>
<path d="M79.4575 17.9214C79.2373 16.1222 78.3443 14.7254 76.7785 13.731C75.2127 12.7368 73.2922 12.2396 71.0169 12.2396C69.3532 12.2396 67.8975 12.5 66.6497 13.0208C65.4142 13.5417 64.4479 14.2578 63.7506 15.1693C63.0656 16.0807 62.723 17.1165 62.723 18.2765C62.723 19.2472 62.9616 20.0817 63.4387 20.78C63.928 21.4666 64.5518 22.0407 65.3102 22.5024C66.0687 22.9522 66.8638 23.325 67.6956 23.621C68.5275 23.905 69.292 24.1359 69.9893 24.3135L73.8059 25.3078C74.7845 25.5563 75.8733 25.8996 77.0721 26.3376C78.2831 26.7756 79.4391 27.3733 80.5401 28.1309C81.6532 28.8767 82.5707 29.8355 83.2924 31.0073C84.0141 32.1792 84.375 33.6174 84.375 35.322C84.375 37.2869 83.8429 39.0625 82.7786 40.6487C81.7266 42.2348 80.1853 43.4955 78.1547 44.4306C76.1363 45.3658 73.6836 45.8333 70.7966 45.8333C68.1054 45.8333 65.7751 45.4131 63.8056 44.5727C61.8484 43.7323 60.3071 42.5604 59.1817 41.057C58.0685 39.5538 57.4385 37.8078 57.2917 35.8191H61.9891C62.1114 37.1923 62.5885 38.3286 63.4203 39.2282C64.2644 40.116 65.3286 40.7789 66.613 41.2168C67.9097 41.643 69.3043 41.856 70.7966 41.856C72.5337 41.856 74.0934 41.5838 75.4757 41.0393C76.858 40.483 77.9528 39.7135 78.7602 38.731C79.5675 37.7368 79.9712 36.5767 79.9712 35.251C79.9712 34.0435 79.6226 33.0611 78.9253 32.3035C78.228 31.5459 77.3106 30.9304 76.1729 30.4569C75.0353 29.9834 73.8059 29.5691 72.4848 29.214L67.8608 27.9356C64.925 27.1188 62.6007 25.9529 60.8881 24.4378C59.1755 22.9226 58.3192 20.9399 58.3192 18.4896C58.3192 16.4536 58.8881 14.678 60.0257 13.1629C61.1756 11.6359 62.7169 10.4522 64.6497 9.61174C66.5947 8.75947 68.766 8.33333 71.1636 8.33333C73.5857 8.33333 75.7387 8.75355 77.6225 9.59399C79.5064 10.4226 80.9988 11.5589 82.0997 13.0031C83.2129 14.4472 83.8001 16.0866 83.8612 17.9214H79.4575Z" fill="#5FAD65"/>
<path d="M54.1667 58.195V54.1667H87.5V58.195H73.5243V91.6667H68.1424V58.195H54.1667Z" fill="#DB5C5C"/>
<path d="M17.4242 91.6667H12.5L26.7424 54.1667H31.5909L45.8333 91.6667H40.9091L29.3182 60.0993H29.0152L17.4242 91.6667ZM19.2424 77.0182H39.0909V81.0466H19.2424V77.0182Z" fill="#F2C55C"/>
<rect x="2" y="2" width="96" height="96" stroke="#6C707E" stroke-width="4"/>
</svg>
