<svg width="16" height="16" viewBox="0 0 16 16" fill="none" xmlns="http://www.w3.org/2000/svg">
<g clip-path="url(#clip0_90_757)">
<path d="M4.38226 2.66667H11.7794" stroke="#6C707E" stroke-linecap="round"/>
<path d="M4.66669 13.3333H11.3334" stroke="#6C707E" stroke-linecap="round"/>
<path d="M14.2667 1.06667H12.9333C12.5651 1.06667 12.2667 1.36514 12.2667 1.73333V3.06667C12.2667 3.43486 12.5651 3.73333 12.9333 3.73333H14.2667C14.6349 3.73333 14.9333 3.43486 14.9333 3.06667V1.73333C14.9333 1.36514 14.6349 1.06667 14.2667 1.06667Z" stroke="#6C707E" stroke-linejoin="round"/>
<path d="M3.33331 1.33333H1.99998C1.63179 1.33333 1.33331 1.63181 1.33331 2V3.33333C1.33331 3.70152 1.63179 4 1.99998 4H3.33331C3.7015 4 3.99998 3.70152 3.99998 3.33333V2C3.99998 1.63181 3.7015 1.33333 3.33331 1.33333Z" stroke="#6C707E" stroke-linejoin="round"/>
<path d="M14 12H12.6667C12.2985 12 12 12.2985 12 12.6667V14C12 14.3682 12.2985 14.6667 12.6667 14.6667H14C14.3682 14.6667 14.6667 14.3682 14.6667 14V12.6667C14.6667 12.2985 14.3682 12 14 12Z" stroke="#6C707E" stroke-linejoin="round"/>
<path d="M3.33331 12H1.99998C1.63179 12 1.33331 12.2985 1.33331 12.6667V14C1.33331 14.3682 1.63179 14.6667 1.99998 14.6667H3.33331C3.7015 14.6667 3.99998 14.3682 3.99998 14V12.6667C3.99998 12.2985 3.7015 12 3.33331 12Z" stroke="#6C707E" stroke-linejoin="round"/>
<path d="M6.26666 7.46667H4.93333C4.56514 7.46667 4.26666 7.76514 4.26666 8.13333V9.46667C4.26666 9.83486 4.56514 10.1333 4.93333 10.1333H6.26666C6.63485 10.1333 6.93333 9.83486 6.93333 9.46667V8.13333C6.93333 7.76514 6.63485 7.46667 6.26666 7.46667Z" stroke="#6C707E" stroke-linejoin="round"/>
<path d="M13.5 4L13.5 11.5" stroke="#6C707E" stroke-linecap="round"/>
<path d="M4.53333 10.4L3.19999 11.7333" stroke="#6C707E" stroke-linecap="round"/>
<path d="M3.46667 4.26666L4.53335 7.2" stroke="#6C707E" stroke-linecap="round"/>
</g>
<defs>
<clipPath id="clip0_90_757">
<rect width="16" height="16" fill="white"/>
</clipPath>
</defs>
</svg>
