<svg width="32" height="32" viewBox="0 0 32 32" fill="none" xmlns="http://www.w3.org/2000/svg">
<path d="M8.76454 5.33333H23.5589" stroke="#6C707E" stroke-width="2" stroke-linecap="round"/>
<path d="M9.33333 26.6667H22.6667" stroke="#6C707E" stroke-width="2" stroke-linecap="round"/>
<path d="M28.5333 2.13333H25.8667C25.1303 2.13333 24.5333 2.73029 24.5333 3.46667V6.13333C24.5333 6.86971 25.1303 7.46667 25.8667 7.46667H28.5333C29.2697 7.46667 29.8667 6.86971 29.8667 6.13333V3.46667C29.8667 2.73029 29.2697 2.13333 28.5333 2.13333Z" stroke="#6C707E" stroke-width="2" stroke-linejoin="round"/>
<path d="M6.66667 2.66667H4.00001C3.26363 2.66667 2.66667 3.26362 2.66667 4V6.66667C2.66667 7.40305 3.26363 8 4.00001 8H6.66667C7.40305 8 8 7.40305 8 6.66667V4C8 3.26362 7.40305 2.66667 6.66667 2.66667Z" stroke="#6C707E" stroke-width="2" stroke-linejoin="round"/>
<path d="M28 24H25.3333C24.597 24 24 24.597 24 25.3333V28C24 28.7364 24.597 29.3333 25.3333 29.3333H28C28.7364 29.3333 29.3333 28.7364 29.3333 28V25.3333C29.3333 24.597 28.7364 24 28 24Z" stroke="#6C707E" stroke-width="2" stroke-linejoin="round"/>
<path d="M6.66667 24H4.00001C3.26363 24 2.66667 24.597 2.66667 25.3333V28C2.66667 28.7364 3.26363 29.3333 4.00001 29.3333H6.66667C7.40305 29.3333 8 28.7364 8 28V25.3333C8 24.597 7.40305 24 6.66667 24Z" stroke="#6C707E" stroke-width="2" stroke-linejoin="round"/>
<path d="M12.5333 14.9333H9.86667C9.13029 14.9333 8.53334 15.5303 8.53334 16.2667V18.9333C8.53334 19.6697 9.13029 20.2667 9.86667 20.2667H12.5333C13.2697 20.2667 13.8667 19.6697 13.8667 18.9333V16.2667C13.8667 15.5303 13.2697 14.9333 12.5333 14.9333Z" stroke="#6C707E" stroke-width="2" stroke-linejoin="round"/>
<path d="M27 8L27 23" stroke="#6C707E" stroke-width="2" stroke-linecap="round"/>
<path d="M9.06667 20.8L6.4 23.4667" stroke="#6C707E" stroke-width="2" stroke-linecap="round"/>
<path d="M6.93332 8.53333L9.06668 14.4" stroke="#6C707E" stroke-width="2" stroke-linecap="round"/>
</svg>
