<svg width="16" height="16" viewBox="0 0 16 16" fill="none" xmlns="http://www.w3.org/2000/svg">
<path d="M7.89999 6.4C7.89999 7.42943 7.28855 8.92714 6.38937 10.1943C5.94633 10.8186 5.45308 11.3583 4.96661 11.7367C4.47059 12.1225 4.03447 12.3 3.69523 12.3C2.84561 12.3 2.28166 11.9804 1.9089 11.4431C1.51654 10.8775 1.29999 10.0163 1.29999 8.88889C1.29999 7.85199 1.82772 6.53221 2.62357 5.45853C3.01699 4.92777 3.46011 4.47931 3.90704 4.16765C4.35769 3.85341 4.78 3.7 5.14285 3.7C6.08428 3.7 6.75373 3.90049 7.18739 4.28883C7.61013 4.66738 7.89999 5.30756 7.89999 6.4Z" stroke="#0668E1"/>
<path d="M14.7 9.6C14.7 8.57057 14.0885 7.07286 13.1894 5.8057C12.7463 5.18135 12.2531 4.64166 11.7666 4.26331C11.2706 3.87754 10.8345 3.7 10.4952 3.7C9.6456 3.7 9.08165 4.01956 8.70889 4.5569C8.31653 5.12248 8.09998 5.98368 8.09998 7.11111C8.09998 8.148 8.62771 9.46779 9.42356 10.5415C9.81698 11.0722 10.2601 11.5207 10.707 11.8323C11.1577 12.1466 11.58 12.3 11.9428 12.3C12.8843 12.3 13.5537 12.0995 13.9874 11.7112C14.4101 11.3326 14.7 10.6924 14.7 9.6Z" stroke="#0668E1"/>
</svg>
