<svg width="32" height="32" viewBox="0 0 32 32" fill="none" xmlns="http://www.w3.org/2000/svg">
<path d="M15.8 12.8C15.8 14.8589 14.5771 17.8543 12.7788 20.3886C11.8927 21.6373 10.9062 22.7167 9.93324 23.4734C8.94121 24.2449 8.06897 24.6 7.39048 24.6C5.69125 24.6 4.56335 23.9609 3.81783 22.8862C3.03312 21.755 2.60001 20.0326 2.60001 17.7778C2.60001 15.704 3.65547 13.0644 5.24717 10.9171C6.03401 9.85554 6.92024 8.95861 7.81412 8.3353C8.71541 7.70682 9.56004 7.4 10.2857 7.4C12.1686 7.4 13.5075 7.80097 14.3748 8.57765C15.2203 9.33476 15.8 10.6151 15.8 12.8Z" stroke="#0668E1" stroke-width="2"/>
<path d="M29.4 19.2C29.4 17.1411 28.1771 14.1457 26.3788 11.6114C25.4927 10.3627 24.5062 9.28333 23.5332 8.52662C22.5412 7.75508 21.669 7.4 20.9905 7.4C19.2913 7.4 18.1634 8.03913 17.4178 9.11379C16.6331 10.245 16.2 11.9674 16.2 14.2222C16.2 16.296 17.2555 18.9356 18.8472 21.0829C19.634 22.1445 20.5202 23.0414 21.4141 23.6647C22.3154 24.2932 23.16 24.6 23.8857 24.6C25.7686 24.6 27.1075 24.199 27.9748 23.4223C28.8203 22.6652 29.4 21.3849 29.4 19.2Z" stroke="#0668E1" stroke-width="2"/>
</svg>
