<svg width="32" height="32" viewBox="0 0 32 32" fill="none" xmlns="http://www.w3.org/2000/svg">
<path fill-rule="evenodd" clip-rule="evenodd" d="M6.57442 8.73922C5.96594 9.53848 5.45595 10.4156 5.06195 11.3525L6.74116 14.1886C7.40255 15.3057 7.40255 16.6944 6.74116 17.8114L5.06195 20.6475C5.45595 21.5844 5.96594 22.4615 6.57442 23.2608L9.86673 23.2247C11.1649 23.2105 12.3676 23.9049 13.0044 25.0361L14.6198 27.9061C15.1137 27.968 15.6177 28 16.1301 28C16.6423 28 17.1462 27.968 17.6401 27.9061L19.2555 25.0361C19.8923 23.9049 21.095 23.2105 22.3931 23.2247L25.6857 23.2608C26.2941 22.4616 26.8041 21.5845 27.198 20.6477L25.5187 17.8114C24.8573 16.6944 24.8573 15.3057 25.5187 14.1886L27.198 11.3523C26.8041 10.4155 26.2941 9.53841 25.6857 8.73922L22.3931 8.77529C21.095 8.78951 19.8923 8.09516 19.2555 6.96388L17.6401 4.09387C17.1462 4.03198 16.6423 4 16.1301 4C15.6177 4 15.1137 4.03199 14.6198 4.0939L13.0044 6.96388C12.3676 8.09516 11.1649 8.78951 9.86672 8.77529L6.57442 8.73922ZM21.4322 16C21.4322 18.9282 19.0583 21.302 16.1299 21.302C13.2015 21.302 10.8276 18.9282 10.8276 16C10.8276 13.0718 13.2015 10.698 16.1299 10.698C19.0583 10.698 21.4322 13.0718 21.4322 16ZM9.88864 6.77541C10.4566 6.78163 10.9828 6.47785 11.2614 5.98291L12.998 2.8975C13.22 2.50318 13.6019 2.22019 14.0495 2.15352C14.7283 2.0524 15.4231 2 16.1301 2C16.8369 2 17.5316 2.05238 18.2103 2.15347C18.6579 2.22014 19.0398 2.50313 19.2618 2.89746L20.9985 5.98291C21.2771 6.47785 21.8033 6.78163 22.3712 6.77541L25.91 6.73664C26.3616 6.73169 26.7969 6.92025 27.0787 7.27322C27.9424 8.35533 28.6491 9.56832 29.1641 10.8777C29.3295 11.2982 29.2752 11.7698 29.045 12.1586L27.2398 15.2075C26.9504 15.6962 26.9504 16.3038 27.2398 16.7925L29.045 19.8414C29.2752 20.2302 29.3295 20.7018 29.1641 21.1223C28.6491 22.4317 27.9424 23.6447 27.0787 24.7268C26.7969 25.0798 26.3616 25.2683 25.91 25.2634L22.3712 25.2246C21.8033 25.2184 21.2771 25.5222 20.9985 26.0171L19.2618 29.1025C19.0398 29.4969 18.6579 29.7799 18.2103 29.8465C17.5316 29.9476 16.8369 30 16.1301 30C15.4231 30 14.7283 29.9476 14.0495 29.8465C13.6019 29.7798 13.22 29.4968 12.998 29.1025L11.2614 26.0171C10.9828 25.5222 10.4566 25.2184 9.88864 25.2246L6.35009 25.2634C5.89847 25.2683 5.46317 25.0798 5.18142 24.7268C4.31761 23.6446 3.61091 22.4315 3.09586 21.122C2.93046 20.7015 2.98478 20.23 3.21501 19.8411L5.02006 16.7925C5.30942 16.3038 5.30942 15.6962 5.02006 15.2075L3.215 12.1589C2.98478 11.77 2.93046 11.2985 3.09586 10.878C3.61091 9.56849 4.31761 8.3554 5.18141 7.27323C5.46316 6.92025 5.89846 6.73169 6.35009 6.73664L9.88864 6.77541ZM19.4321 16C19.4321 17.8237 17.9536 19.302 16.1299 19.302C14.3061 19.302 12.8277 17.8237 12.8277 16C12.8277 14.1764 14.3061 12.698 16.1299 12.698C17.9536 12.698 19.4321 14.1764 19.4321 16Z" fill="#6C707E"/>
</svg>
