<svg width="32" height="32" viewBox="0 0 32 32" fill="none" xmlns="http://www.w3.org/2000/svg">
<path fill-rule="evenodd" clip-rule="evenodd" d="M8.29314 20.2998C7.90248 19.9094 7.90226 19.2763 8.29265 18.8856C8.68304 18.4949 9.31621 18.4947 9.70687 18.8851L14.9998 24.1744L14.9998 9C14.9998 8.44772 15.4475 8 15.9998 8C16.5521 8 16.9998 8.44772 16.9998 9L16.9998 24.1745L22.2928 18.8851C22.6834 18.4947 23.3166 18.4949 23.707 18.8856C24.0974 19.2763 24.0971 19.9094 23.7065 20.2998L16.7067 27.2948L15.9998 28.0012L15.2929 27.2948L8.29314 20.2998Z" fill="#6C707E"/>
<rect x="28" y="6" width="24" height="2" rx="1" transform="rotate(-180 28 6)" fill="#6C707E"/>
</svg>
