<svg width="16" height="16" viewBox="0 0 16 16" fill="none" xmlns="http://www.w3.org/2000/svg">
<path fill-rule="evenodd" clip-rule="evenodd" d="M11.8536 5.85355C12.0488 6.04881 12.0488 6.3654 11.8536 6.56066C11.6583 6.75592 11.3417 6.75592 11.1464 6.56066L8.5 3.91421L8.5 11.5071C8.5 11.7832 8.27615 12.0071 8 12.0071C7.72386 12.0071 7.5 11.7832 7.5 11.5071L7.5 3.91421L4.85355 6.56066C4.65829 6.75592 4.34171 6.75592 4.14645 6.56066C3.95118 6.36539 3.95118 6.04881 4.14645 5.85355L7.64645 2.35355L8 2L8.35355 2.35355L11.8536 5.85355Z" fill="#6C707E"/>
<rect x="2" y="13.0071" width="12" height="1" rx="0.5" fill="#6C707E"/>
</svg>
