<svg width="32" height="32" viewBox="0 0 32 32" fill="none" xmlns="http://www.w3.org/2000/svg">
<rect x="4" y="26" width="24" height="2" rx="1" fill="#6C707E"/>
<path fill-rule="evenodd" clip-rule="evenodd" d="M23.7066 11.708C24.0972 12.0984 24.0974 12.7316 23.7071 13.1222C23.3167 13.5129 22.6835 13.5131 22.2928 13.1227L16.9999 7.83336L16.9999 23.0078C16.9999 23.5601 16.5522 24.0078 15.9999 24.0078C15.4476 24.0078 14.9999 23.5601 14.9999 23.0078L14.9999 7.83335L9.70696 13.1227C9.3163 13.5131 8.68313 13.5129 8.29274 13.1222C7.90235 12.7315 7.90257 12.0984 8.29323 11.708L15.293 4.71296L15.9999 4.00658L16.7068 4.71296L23.7066 11.708Z" fill="#6C707E"/>
</svg>
