<svg width="32" height="32" viewBox="0 0 32 32" fill="none" xmlns="http://www.w3.org/2000/svg">
<path d="M5.09858 19.3819C4.7572 19.816 4.8324 20.4447 5.26655 20.7861C5.70069 21.1275 6.32937 21.0523 6.67075 20.6181L5.09858 19.3819ZM27 21C27 21.5523 27.4477 22 28 22C28.5523 22 29 21.5523 29 21L27 21ZM6 15C6 14.4477 5.55228 14 5 14C4.44772 14 4 14.4477 4 15H6ZM5 21H4V22H5V21ZM10.3077 22C10.86 22 11.3077 21.5523 11.3077 21C11.3077 20.4477 10.86 20 10.3077 20V22ZM5.88466 20C6.67075 20.6181 6.67065 20.6182 6.67057 20.6183C6.67058 20.6183 6.67054 20.6184 6.67056 20.6184C6.6706 20.6183 6.67075 20.6181 6.67101 20.6178C6.67152 20.6171 6.67246 20.616 6.67382 20.6142C6.67654 20.6108 6.68094 20.6052 6.687 20.5976C6.69913 20.5824 6.71787 20.559 6.743 20.528C6.79325 20.4659 6.86898 20.3733 6.96826 20.2544C7.16688 20.0167 7.45933 19.6747 7.83011 19.2631C8.57292 18.4387 9.62398 17.3423 10.8598 16.249C12.0986 15.1529 13.5025 14.0785 14.9501 13.2825C16.4057 12.482 17.8386 12 19.1539 12V10C17.373 10 15.5992 10.643 13.9863 11.53C12.3653 12.4215 10.8389 13.5971 9.53456 14.751C8.22708 15.9077 7.12189 17.0613 6.34426 17.9244C5.95483 18.3566 5.64602 18.7177 5.43343 18.9721C5.3271 19.0994 5.24474 19.2001 5.18831 19.2699C5.16009 19.3047 5.13834 19.3319 5.1233 19.3507C5.11579 19.3601 5.10995 19.3675 5.10582 19.3727C5.10375 19.3753 5.10211 19.3774 5.1009 19.3789C5.1003 19.3797 5.0998 19.3803 5.09942 19.3808C5.09922 19.3811 5.09901 19.3813 5.09892 19.3815C5.09873 19.3817 5.09858 19.3819 5.88466 20ZM19.1539 12C21.1633 12 22.6072 12.5631 23.6662 13.3611C24.7377 14.1686 25.4747 15.2627 25.9797 16.4045C26.4851 17.5472 26.7427 18.7034 26.8725 19.5834C26.937 20.0208 26.9689 20.3835 26.9847 20.6334C26.9926 20.7582 26.9964 20.8544 26.9983 20.9172C26.9992 20.9486 26.9996 20.9716 26.9998 20.9856C26.9999 20.9926 27 20.9973 27 20.9998C27 21.001 27 21.0016 27 21.0017C27 21.0017 27 21.0016 27 21.0013C27 21.0011 27 21.0008 27 21.0008C27 21.0004 27 21 28 21C29 21 29 20.9995 29 20.999C29 20.9988 29 20.9983 29 20.9978C29 20.9969 29 20.9959 29 20.9947C29 20.9923 29 20.9893 28.9999 20.9857C28.9999 20.9785 28.9998 20.969 28.9996 20.957C28.9993 20.9332 28.9986 20.9001 28.9974 20.8582C28.9949 20.7745 28.9901 20.6559 28.9807 20.5073C28.962 20.2103 28.9248 19.7917 28.8511 19.2916C28.7044 18.2966 28.4091 16.9528 27.8088 15.5955C27.2081 14.2373 26.2863 12.8314 24.8699 11.7639C23.4409 10.6869 21.5676 10 19.1539 10V12ZM4 15V21H6V15H4ZM5 22H10.3077V20H5V22Z" fill="#6C707E"/>
</svg>
